<svg width="112" height="22" viewBox="0 0 112 22" fill="none" xmlns="http://www.w3.org/2000/svg">
<path d="M11.8 0.223999H15.544V17H11.8L3.808 6.488V17H0.0640001V0.223999H3.568L11.8 11.024V0.223999ZM30.3892 17H27.0052V15.44C26.0772 16.608 24.9252 17.192 23.5492 17.192C22.1892 17.192 21.0452 16.8 20.1172 16.016C19.1892 15.216 18.7252 14.16 18.7252 12.848C18.7252 11.52 19.2052 10.528 20.1652 9.872C21.1252 9.216 22.4372 8.888 24.1012 8.888H26.7892V8.816C26.7892 7.44 26.0612 6.752 24.6052 6.752C23.9812 6.752 23.3172 6.88 22.6132 7.136C21.9252 7.376 21.3412 7.68 20.8612 8.048L19.2532 5.72C20.9492 4.488 22.8852 3.872 25.0612 3.872C26.6292 3.872 27.9092 4.264 28.9012 5.048C29.8932 5.832 30.3892 7.072 30.3892 8.768V17ZM26.7652 12.08V11.456H24.5092C23.0692 11.456 22.3492 11.904 22.3492 12.8C22.3492 13.264 22.5172 13.624 22.8532 13.88C23.2052 14.12 23.7012 14.24 24.3412 14.24C24.9812 14.24 25.5412 14.048 26.0212 13.664C26.5172 13.264 26.7652 12.736 26.7652 12.08ZM43.4912 12.992C43.4912 14.256 43.0192 15.272 42.0752 16.04C41.1472 16.808 39.9632 17.192 38.5232 17.192C37.5632 17.192 36.5632 17.024 35.5232 16.688C34.4832 16.336 33.5472 15.824 32.7152 15.152L34.2992 12.896C35.6432 13.936 37.0752 14.456 38.5952 14.456C39.0592 14.456 39.4272 14.368 39.6992 14.192C39.9712 14 40.1072 13.752 40.1072 13.448C40.1072 13.144 39.9152 12.864 39.5312 12.608C39.1632 12.352 38.6192 12.112 37.8992 11.888C37.1952 11.664 36.6512 11.472 36.2672 11.312C35.8992 11.152 35.4752 10.92 34.9952 10.616C34.0192 10.008 33.5312 9.112 33.5312 7.928C33.5312 6.728 34.0112 5.752 34.9712 5C35.9312 4.248 37.1712 3.872 38.6912 3.872C40.2112 3.872 41.7312 4.384 43.2512 5.408L41.9072 7.808C40.7872 7.04 39.6672 6.656 38.5472 6.656C37.4432 6.656 36.8912 6.96 36.8912 7.568C36.8912 7.904 37.0672 8.168 37.4192 8.36C37.7712 8.552 38.3552 8.776 39.1712 9.032C39.9872 9.288 40.5632 9.488 40.8992 9.632C41.2512 9.76 41.6672 9.968 42.1472 10.256C43.0432 10.8 43.4912 11.712 43.4912 12.992ZM56.0599 12.992C56.0599 14.256 55.5879 15.272 54.6439 16.04C53.7159 16.808 52.5319 17.192 51.0919 17.192C50.1319 17.192 49.1319 17.024 48.0919 16.688C47.0519 16.336 46.1159 15.824 45.2839 15.152L46.8679 12.896C48.2119 13.936 49.6439 14.456 51.1639 14.456C51.6279 14.456 51.9959 14.368 52.2679 14.192C52.5399 14 52.6759 13.752 52.6759 13.448C52.6759 13.144 52.4839 12.864 52.0999 12.608C51.7319 12.352 51.1879 12.112 50.4679 11.888C49.7639 11.664 49.2199 11.472 48.8359 11.312C48.4679 11.152 48.0439 10.92 47.5639 10.616C46.5879 10.008 46.0999 9.112 46.0999 7.928C46.0999 6.728 46.5799 5.752 47.5399 5C48.4999 4.248 49.7399 3.872 51.2599 3.872C52.7799 3.872 54.2999 4.384 55.8199 5.408L54.4759 7.808C53.3559 7.04 52.2359 6.656 51.1159 6.656C50.0119 6.656 49.4599 6.96 49.4599 7.568C49.4599 7.904 49.6359 8.168 49.9879 8.36C50.3399 8.552 50.9239 8.776 51.7399 9.032C52.5559 9.288 53.1319 9.488 53.4679 9.632C53.8199 9.76 54.2359 9.968 54.7159 10.256C55.6119 10.8 56.0599 11.712 56.0599 12.992ZM65.1007 14C66.3007 14 67.3807 13.4 68.3407 12.2L70.4767 14.6C68.8127 16.328 67.0127 17.192 65.0767 17.192C63.1407 17.192 61.5007 16.584 60.1567 15.368C58.8287 14.136 58.1647 12.536 58.1647 10.568C58.1647 8.584 58.8367 6.976 60.1807 5.744C61.5407 4.496 63.1487 3.872 65.0047 3.872C65.9327 3.872 66.8687 4.064 67.8127 4.448C68.7727 4.832 69.6127 5.4 70.3327 6.152L68.4607 8.6C68.0447 8.104 67.5327 7.72 66.9247 7.448C66.3327 7.176 65.7407 7.04 65.1487 7.04C64.2047 7.04 63.3887 7.352 62.7007 7.976C62.0287 8.584 61.6927 9.44 61.6927 10.544C61.6927 11.632 62.0287 12.48 62.7007 13.088C63.3887 13.696 64.1887 14 65.1007 14ZM75.6465 10.544C75.6465 11.6 75.9425 12.464 76.5345 13.136C77.1425 13.792 77.9105 14.12 78.8385 14.12C79.7825 14.12 80.5505 13.792 81.1425 13.136C81.7505 12.464 82.0545 11.6 82.0545 10.544C82.0545 9.488 81.7505 8.624 81.1425 7.952C80.5505 7.28 79.7825 6.944 78.8385 6.944C77.9105 6.944 77.1425 7.28 76.5345 7.952C75.9425 8.624 75.6465 9.488 75.6465 10.544ZM85.6785 10.544C85.6785 12.416 85.0305 13.992 83.7345 15.272C82.4385 16.552 80.8065 17.192 78.8385 17.192C76.8865 17.192 75.2625 16.552 73.9665 15.272C72.6705 13.992 72.0225 12.416 72.0225 10.544C72.0225 8.672 72.6705 7.096 73.9665 5.816C75.2625 4.52 76.8865 3.872 78.8385 3.872C80.8065 3.872 82.4385 4.52 83.7345 5.816C85.0305 7.096 85.6785 8.672 85.6785 10.544ZM95.2444 7.256C94.1724 7.256 93.3724 7.64 92.8444 8.408C92.3164 9.16 92.0524 10.16 92.0524 11.408V17H88.4524V4.088H92.0524V5.792C92.5164 5.264 93.0924 4.816 93.7804 4.448C94.4844 4.08 95.1964 3.888 95.9164 3.872L95.9404 7.256H95.2444ZM105.932 3.872C107.436 3.872 108.772 4.504 109.94 5.768C111.124 7.016 111.716 8.592 111.716 10.496C111.716 12.4 111.124 13.992 109.94 15.272C108.772 16.552 107.396 17.192 105.812 17.192C104.244 17.192 102.98 16.56 102.02 15.296V21.656H98.4196V4.088H102.02V5.528C103.124 4.424 104.428 3.872 105.932 3.872ZM101.972 10.568C101.972 11.608 102.26 12.464 102.836 13.136C103.428 13.792 104.14 14.12 104.972 14.12C105.804 14.12 106.532 13.792 107.156 13.136C107.78 12.464 108.092 11.608 108.092 10.568C108.092 9.528 107.788 8.656 107.18 7.952C106.572 7.248 105.844 6.896 104.996 6.896C104.148 6.896 103.428 7.248 102.836 7.952C102.26 8.64 101.972 9.512 101.972 10.568Z" fill="white"/>
</svg>
